<svg id="Capa_1" data-name="Capa 1" xmlns="http://www.w3.org/2000/svg" xmlns:xlink="http://www.w3.org/1999/xlink" viewBox="0 0 312 277"><defs><style>.cls-1{fill:#fcc;}.cls-2{clip-path:url(#clip-path);}.cls-3{fill:#fff;}.cls-4{fill:#336;}</style><clipPath id="clip-path"><path class="cls-1" d="M34.82,144.51A132.59,132.59,0,1,1,167.41,277.1,132.59,132.59,0,0,1,34.82,144.51"/></clipPath></defs><title>LOGO [Recuperado]</title><path class="cls-1" d="M34.82,144.51A132.59,132.59,0,1,1,167.41,277.1,132.59,132.59,0,0,1,34.82,144.51"/><g class="cls-2"><path class="cls-3" d="M260.72,140.44l-34.24,19.62L163.29,82.2l-54.5,60.56L92.87,130.64-60,266.17,408.5,298.5ZM56.31,202.79s-1.77-16.46,10.59-28.71,25.42-21.94,28.59-34.61l11.3,9.71ZM196.11,164c-11.29-9.71-39.18,9.29-52.6,17.31,10.59-42.64,7.77-64.17,4.24-68L164,93.45,246,197S207.41,173.66,196.11,164Zm72.68,7c-1.29.36-3.2-.1-5.41-1.92s-2.59-15.4-.91-14.22l13.31,15.95A1.23,1.23,0,0,0,276,172c-.27.7-.91,1.5-2.4.25C271.31,170.3,270.09,170.57,268.79,170.94Z"/></g><path class="cls-4" d="M148.69,211.31a42.26,42.26,0,0,1-11.49,2.95,55.41,55.41,0,0,1-11.87.07,69.23,69.23,0,0,1-11.74-2.22,88.26,88.26,0,0,1-11.2-3.94q-2.19-.85-4.58-2T93,203.84q-2.43-1.22-5-2.34t-5-2a10.82,10.82,0,0,1-2.16,2.94,12.65,12.65,0,0,1-3,2.2,10.22,10.22,0,0,1-3.48,1.08,8.4,8.4,0,0,1-3.64-.36,6.74,6.74,0,0,1-3.88-3.14,4.87,4.87,0,0,1-.21-3.79,7.55,7.55,0,0,1,2.6-3.4,9.77,9.77,0,0,1,4.56-1.94,21.79,21.79,0,0,1,5.47,0A8.32,8.32,0,0,0,76,189.51a11.33,11.33,0,0,0-4.62-1.7,9.45,9.45,0,0,0-4.73.6,6.61,6.61,0,0,0-3.53,3.31A15.82,15.82,0,0,0,61,196.48a25.51,25.51,0,0,0-.76,5,39.87,39.87,0,0,0,.06,5.12c.13,1.73.26,3.47.38,5.22s.18,3.5.16,5.25a25,25,0,0,1-.61,5.22,24.58,24.58,0,0,1-2,5.84,23.84,23.84,0,0,1-8,9.33,19.47,19.47,0,0,1-5.61,2.63,21.19,21.19,0,0,1-7.84.87,30.46,30.46,0,0,1-8.38-1.74,33.51,33.51,0,0,1-7.71-4A22.45,22.45,0,0,1,15,229.49a15.62,15.62,0,0,1-2.61-7.13,14.31,14.31,0,0,1,1.77-8.14,10.15,10.15,0,0,1,4.46-4.09,13.13,13.13,0,0,1,5.77-1.19,18.27,18.27,0,0,1,6.24,1.24,23.83,23.83,0,0,1,5.89,3.24,23.35,23.35,0,0,1,4.73,4.74A15.37,15.37,0,0,1,44,224a5,5,0,0,1-.28,3.82,3.72,3.72,0,0,1-2.2,1.82,3.58,3.58,0,0,1-2.74-.37,3.85,3.85,0,0,1-1.83-2.72,6.12,6.12,0,0,1-.09-2.4,12.15,12.15,0,0,0,.19-2.33,5.43,5.43,0,0,0-.73-2.47,10.16,10.16,0,0,0-2.79-2.88,9.9,9.9,0,0,0-4.46-2,8.29,8.29,0,0,0-4.35.39,6.37,6.37,0,0,0-3.16,2.68,7.94,7.94,0,0,0-1,4.88,12.93,12.93,0,0,0,3.06,5.89,21.42,21.42,0,0,0,5.67,4.59,19.88,19.88,0,0,0,6.82,2.37,11.5,11.5,0,0,0,6.63-.85,13.5,13.5,0,0,0,5-3.91,14.86,14.86,0,0,0,2.54-5.17,24.7,24.7,0,0,0,.83-6q.06-3.19-.1-6.43t-.23-6.45a26.85,26.85,0,0,1,.48-6.05,27.14,27.14,0,0,1,1.75-6,24.32,24.32,0,0,1,3.22-5.53,19.5,19.5,0,0,1,4.59-4.25,14.17,14.17,0,0,1,5.87-2.22,13.64,13.64,0,0,1,5.51.33A17.45,17.45,0,0,1,77.49,185a16.46,16.46,0,0,1,4.17,3.89,10.83,10.83,0,0,1,2.13,5c1.46.36,2.93.79,4.42,1.29s3,1,4.42,1.53,2.9,1,4.33,1.52,2.86.92,4.28,1.27l10.05,3.17q5,1.59,10.12,2.86t10.23,2.16a86.22,86.22,0,0,0,10.46,1.13l6.12.15a1.06,1.06,0,0,1,.78.3,1.36,1.36,0,0,1,.4.69,1.31,1.31,0,0,1-.09.78A1.2,1.2,0,0,1,148.69,211.31Zm-76.56-9.92a4.28,4.28,0,0,0,1.94.27,5.85,5.85,0,0,0,1.91-.53A7.45,7.45,0,0,0,77.71,200a7.54,7.54,0,0,0,1.38-1.56,20.9,20.9,0,0,0-4.73-.33,7.47,7.47,0,0,0-1.57.41,4.56,4.56,0,0,0-1.42.8,1.17,1.17,0,0,0-.48,1C70.93,200.69,71.34,201,72.13,201.39Z"/><path class="cls-4" d="M78.7,225.38c.68-1,1.38-2,2.1-3L82.57,220l.39-.59.16-.19a.17.17,0,0,1,.08-.09l1.17-1.61c.77-1.07,1-1.83.67-2.28s-1.26-.22-2.81.69a22.39,22.39,0,0,0-2,1.39c-.79.61-1.64,1.32-2.54,2.13s-1.81,1.71-2.74,2.7a32.11,32.11,0,0,0-2.56,3.1L69,230l-6.24-1.6c.26-.4.67-1,1.24-1.77s1.21-1.68,1.93-2.71l2.36-3.32q1.26-1.78,2.52-3.54,3-4.09,6.41-9l6.29,1.61-3.16,4.45L82.05,213a15.57,15.57,0,0,1,4-1.75,8.11,8.11,0,0,1,4.07.12,3.89,3.89,0,0,1,2.08,1.11,2.55,2.55,0,0,1,.63,1.72,5,5,0,0,1-.51,2.12,14.69,14.69,0,0,1-1.35,2.31l-5.34,7.53-.19.3-.08.09a5.94,5.94,0,0,0-.74,1.43,1,1,0,0,0,0,.88c.14.19.43.24.88.14a6.73,6.73,0,0,0,1.83-.83c2.13-1.23,3.94-2.3,5.45-3.23a2.23,2.23,0,0,1,1.6-.37,1.42,1.42,0,0,1,1,.66,1.53,1.53,0,0,1,.07,1.18,2.22,2.22,0,0,1-1.09,1.19L88.57,231a15.34,15.34,0,0,1-4.38,1.79,9.93,9.93,0,0,1-4.65-.12,3.9,3.9,0,0,1-2.08-1.12,2.59,2.59,0,0,1-.63-1.74,5.14,5.14,0,0,1,.53-2.15A14.35,14.35,0,0,1,78.7,225.38Z"/><path class="cls-4" d="M110,215.37a6.66,6.66,0,0,1,3.26,1.43,5.34,5.34,0,0,1,1.67,2.63,7.6,7.6,0,0,1,0,3.56,17.24,17.24,0,0,1-1.56,4.24,4.84,4.84,0,0,1-.42.78l-.48.76a3.85,3.85,0,0,0,2.13,1,3,3,0,0,0,2.16-.53,2.25,2.25,0,0,1,1.54-.49,1.38,1.38,0,0,1,1,.58,1.48,1.48,0,0,1,.16,1.17,2.24,2.24,0,0,1-1,1.27,6,6,0,0,1-2.08.93,6.93,6.93,0,0,1-2.16.19,6.28,6.28,0,0,1-2-.48,4.61,4.61,0,0,1-1.62-1.08,18.29,18.29,0,0,1-5.74,4.57A10,10,0,0,1,98.47,237,7.16,7.16,0,0,1,95,235.41a6.67,6.67,0,0,1-2-2.88,8.37,8.37,0,0,1-.37-3.82A12.56,12.56,0,0,1,94,224.35a15.69,15.69,0,0,1,3-4.07,18.48,18.48,0,0,1,4-3,17.08,17.08,0,0,1,4.48-1.73A11,11,0,0,1,110,215.37Zm-7.89,15.87a6,6,0,0,0,3-.26,9.61,9.61,0,0,0,2.93-1.64,7.3,7.3,0,0,1-1.6-2.65,8.5,8.5,0,0,1-.47-2.9,6.39,6.39,0,0,1,.58-2.62,4.15,4.15,0,0,1,1.64-1.87,6.61,6.61,0,0,0-2.2.35,8.81,8.81,0,0,0-2.15,1.07,10.37,10.37,0,0,0-1.92,1.67,8.48,8.48,0,0,0-1.44,2.19,7.36,7.36,0,0,0-1,4.45C99.63,230.23,100.51,231,102.06,231.24Zm8.67-5.27a6.74,6.74,0,0,0,.84-4.4c-.14-.48-.42-.62-.84-.41a2.49,2.49,0,0,0-1,1.21,5.25,5.25,0,0,0-.43,2.11,3.51,3.51,0,0,0,1,2.36Z"/><path class="cls-4" d="M150.29,221.54a10.32,10.32,0,0,1-1.41,5,27.89,27.89,0,0,1-3.81,5.35,3.12,3.12,0,0,0,2.21,1.45,3.39,3.39,0,0,0,2.86-.9,2.4,2.4,0,0,1,1.54-.63,1.35,1.35,0,0,1,1,.49,1.46,1.46,0,0,1,.27,1.15,2.19,2.19,0,0,1-.88,1.35,6.64,6.64,0,0,1-2.53,1.36,8,8,0,0,1-2.72.27,6.51,6.51,0,0,1-2.44-.69,3.48,3.48,0,0,1-1.58-1.57c-.69.69-1.42,1.36-2.17,2a28.92,28.92,0,0,1-2.32,1.85c-.68.5-1.32,1-1.92,1.46a11.79,11.79,0,0,1-1.85,1.19,9.35,9.35,0,0,1-1.92.73,6.21,6.21,0,0,1-2.14.15,2.67,2.67,0,0,1-2.17-1.56,7.75,7.75,0,0,1-.9-3.2l-.67.56a15.19,15.19,0,0,1-4,2.49,9.88,9.88,0,0,1-4.61.64,4,4,0,0,1-2.29-.76,2.51,2.51,0,0,1-.87-1.62,5.34,5.34,0,0,1,.19-2.2,14.11,14.11,0,0,1,.95-2.5c.18-.44.44-1,.75-1.65l1.1-2.24,1.29-2.61c.45-.92.89-1.81,1.3-2.67q1.5-3.08,3.27-6.62l6.47.56-7.51,15.3c-.59,1.18-.73,1.93-.42,2.24s1.22,0,2.73-1a13.93,13.93,0,0,0,2.67-2.36,17.75,17.75,0,0,0,2.43-3.38c.55-1.15,1.13-2.33,1.74-3.53s1.16-2.32,1.67-3.37,1.17-2.35,1.76-3.49l6.47.55-7.51,15.31a3.28,3.28,0,0,0-.4,1.37.7.7,0,0,0,.37.68,1.34,1.34,0,0,0,.95,0,4.28,4.28,0,0,0,1.39-.77c1.6-1.21,2.87-2.26,3.81-3.13a11.37,11.37,0,0,0,2.06-2.43,20.46,20.46,0,0,1-.09-2.51,20.1,20.1,0,0,1,.23-2.59,19.15,19.15,0,0,1,.54-2.46,11.84,11.84,0,0,1,.89-2.14,5.17,5.17,0,0,1,1.78-2,3.27,3.27,0,0,1,2-.55,2.33,2.33,0,0,1,1.68,1A4.17,4.17,0,0,1,150.29,221.54Z"/><path class="cls-4" d="M286.85,184a42.56,42.56,0,0,1-8.89,7.85,56.35,56.35,0,0,1-10.55,5.45,70.86,70.86,0,0,1-11.47,3.36,86.59,86.59,0,0,1-11.76,1.57c-1.56.16-3.22.27-5,.32s-3.54.08-5.36.1-3.65.08-5.5.17-3.63.27-5.37.53a11,11,0,0,1-.59,3.6,12.56,12.56,0,0,1-1.68,3.33,10,10,0,0,1-2.61,2.54,8.29,8.29,0,0,1-3.4,1.34,6.77,6.77,0,0,1-4.89-1,5,5,0,0,1-1.92-3.28,7.61,7.61,0,0,1,.78-4.2,9.74,9.74,0,0,1,3.18-3.81,21.6,21.6,0,0,1,4.86-2.52,8.34,8.34,0,0,0-4.48-1.72,11.27,11.27,0,0,0-4.89.59,9.34,9.34,0,0,0-3.94,2.68,6.62,6.62,0,0,0-1.64,4.55,15.73,15.73,0,0,0,.28,5.2,26.65,26.65,0,0,0,1.59,4.79,39.24,39.24,0,0,0,2.38,4.53c.9,1.49,1.81,3,2.71,4.48s1.75,3,2.53,4.6A27.08,27.08,0,0,1,214,240a23.59,23.59,0,0,1-.66,6.17,23,23,0,0,1-2.22,5.77,19.15,19.15,0,0,1-3.8,4.9,21.15,21.15,0,0,1-6.58,4.33,30.64,30.64,0,0,1-8.26,2.26,32.69,32.69,0,0,1-8.67,0,21.91,21.91,0,0,1-7.77-2.49,15.5,15.5,0,0,1-5.57-5.16,14.35,14.35,0,0,1-2.12-8.05,10.28,10.28,0,0,1,2.12-5.68,13.09,13.09,0,0,1,4.6-3.68,18.73,18.73,0,0,1,6.12-1.73,23.8,23.8,0,0,1,13.09,2.28,15.47,15.47,0,0,1,5.07,3.93,5,5,0,0,1,1.49,3.53,3.75,3.75,0,0,1-1.13,2.62,3.57,3.57,0,0,1-2.61.91,3.81,3.81,0,0,1-2.87-1.59,5.93,5.93,0,0,1-1.17-2.1,11.85,11.85,0,0,0-.89-2.16,5.66,5.66,0,0,0-1.77-1.87,10.15,10.15,0,0,0-3.79-1.29,9.94,9.94,0,0,0-4.87.27,8.28,8.28,0,0,0-3.7,2.33,6.38,6.38,0,0,0-1.6,3.82,7.91,7.91,0,0,0,1.36,4.78,13,13,0,0,0,5.41,3.86,21.28,21.28,0,0,0,7.13,1.51,20,20,0,0,0,7.16-1,11.5,11.5,0,0,0,5.51-3.77,13.57,13.57,0,0,0,2.7-5.76,14.88,14.88,0,0,0-.09-5.76,25,25,0,0,0-2-5.73c-.93-1.91-1.93-3.81-3-5.68s-2.12-3.76-3.14-5.64a28,28,0,0,1-2.32-5.62,27.25,27.25,0,0,1-1.17-6.15,23.89,23.89,0,0,1,.35-6.39,19.54,19.54,0,0,1,2.16-5.87,14.17,14.17,0,0,1,4.22-4.65,13.71,13.71,0,0,1,5.06-2.21,17.69,17.69,0,0,1,5.76-.31,16.93,16.93,0,0,1,5.48,1.57,11,11,0,0,1,4.15,3.45c1.46-.34,3-.62,4.52-.86s3.1-.45,4.63-.64l4.56-.61c1.49-.21,3-.48,4.38-.81l10.4-1.75q5.2-.87,10.31-2t10.1-2.73a84.22,84.22,0,0,0,9.82-3.74l5.53-2.65a1.06,1.06,0,0,1,.83-.08,1.38,1.38,0,0,1,.67.44,1.17,1.17,0,0,1,0,1.52Zm-72.71,25.94a4.22,4.22,0,0,0,1.85-.64,5.78,5.78,0,0,0,1.46-1.33,7.33,7.33,0,0,0,1-1.79,7.81,7.81,0,0,0,.52-2,20,20,0,0,0-4.36,1.85,8.16,8.16,0,0,0-1.22,1.08,4.57,4.57,0,0,0-.9,1.36,1.21,1.21,0,0,0,0,1.12C212.75,209.87,213.28,210,214.14,209.94Z"/><path class="cls-4" d="M232.62,222.94a1.42,1.42,0,0,1,1.18.14,1.5,1.5,0,0,1,.59,1,2.22,2.22,0,0,1-.43,1.56l-3.64,5.66a15.31,15.31,0,0,1-3.11,3.57,9.84,9.84,0,0,1-4.21,2,4.1,4.1,0,0,1-2.42-.05,2.5,2.5,0,0,1-1.31-1.29,5.63,5.63,0,0,1-.47-2.16,14.69,14.69,0,0,1,.16-2.67c0-.47.2-1.46.45-3s.54-3.34.88-5.52.74-4.56,1.16-7.16.85-5.21,1.27-7.86q1.51-9.31,3.38-20.73l6.29-1.37-7,43.69a5.83,5.83,0,0,0,0,1.61.93.93,0,0,0,.45.76c.23.1.53,0,.89-.28a7.27,7.27,0,0,0,1.26-1.56l3.42-5.33A2.21,2.21,0,0,1,232.62,222.94Z"/><path class="cls-4" d="M243.57,218.07c.15-1.4.28-2.73.39-4s.22-2.38.32-3.38c.1-1.15.21-2.22.31-3.22l6.25-1.77-1.9,20c1.1-1.44,2.19-2.89,3.25-4.35a40.52,40.52,0,0,0,2.47-3.78,2.14,2.14,0,0,1,1.13-1.05,1.49,1.49,0,0,1,1.18.05,1.45,1.45,0,0,1,.7.94,2.08,2.08,0,0,1-.31,1.57c-.44.78-1,1.69-1.71,2.72s-1.46,2.11-2.28,3.23-1.67,2.26-2.53,3.39-1.68,2.18-2.46,3.14a79.11,79.11,0,0,1-1.58,10.15,35.74,35.74,0,0,1-2.76,8,17.71,17.71,0,0,1-4.16,5.53A11.87,11.87,0,0,1,234.1,258a6.38,6.38,0,0,1-7-3.66,7.55,7.55,0,0,1-.36-4.58,11.66,11.66,0,0,1,3.08-5.44,22.45,22.45,0,0,1,2.15-2l3-2.46q1.68-1.35,3.64-3t4-3.61l.14-1.14c0-.36.05-.89.1-1.6s.12-1.53.21-2.45a14.83,14.83,0,0,1-2.87,3.73,10,10,0,0,1-4.06,2.19,3.93,3.93,0,0,1-2.36.08,2.57,2.57,0,0,1-1.42-1.2,5.09,5.09,0,0,1-.63-2.11,15,15,0,0,1,0-2.68c0-.47.08-1.08.16-1.82s.17-1.57.26-2.48.17-1.89.25-2.9.19-2,.3-3q.32-3.41.72-7.35l6.19-1.75-1.6,17c-.14,1.32,0,2.07.42,2.24s1.16-.45,2.23-1.88a9.26,9.26,0,0,0,1-1.61,19.78,19.78,0,0,0,.86-2,17.3,17.3,0,0,0,.65-2.22C243.34,219.6,243.47,218.83,243.57,218.07ZM233.5,253.65a6.54,6.54,0,0,0,3.31-1.37,9.87,9.87,0,0,0,2.54-3.13,21.68,21.68,0,0,0,1.85-4.77,53.44,53.44,0,0,0,1.28-6.29q-2.22,2-3.91,3.43l-3,2.51q-1.32,1.09-2.28,2a15.16,15.16,0,0,0-1.68,1.87,5.6,5.6,0,0,0-1,2.27,3.9,3.9,0,0,0,.11,1.92,2.4,2.4,0,0,0,1,1.28A2.52,2.52,0,0,0,233.5,253.65Z"/><path class="cls-4" d="M267.9,212.05a1.35,1.35,0,0,1,1.18,0,1.5,1.5,0,0,1,.72.94,2.21,2.21,0,0,1-.25,1.59l-2.93,6.06a15.1,15.1,0,0,1-2.66,3.92A9.71,9.71,0,0,1,260,227a4.06,4.06,0,0,1-2.4.24,2.47,2.47,0,0,1-1.46-1.12,5.43,5.43,0,0,1-.73-2.09,15.09,15.09,0,0,1-.16-2.67c0-.47,0-1.22,0-2.24s.08-2.21.12-3.56.08-2.84.12-4.43.08-3.17.13-4.73q.17-5.51.41-12.11l6.41-2.35-1.11,26.76a5.42,5.42,0,0,0,.17,1.6c.11.39.29.63.54.7s.52-.06.84-.38a6.8,6.8,0,0,0,1.07-1.71l2.75-5.7A2.27,2.27,0,0,1,267.9,212.05Z"/><path class="cls-4" d="M288.27,204.55a2.08,2.08,0,0,1,1-1.17,1.37,1.37,0,0,1,2,.76,2.11,2.11,0,0,1-.13,1.59,38.77,38.77,0,0,1-2.26,4.57,31.71,31.71,0,0,1-2.86,4.15,24.07,24.07,0,0,1-3.38,3.39,15.7,15.7,0,0,1-3.83,2.31,9.54,9.54,0,0,1-4.33.81,6.72,6.72,0,0,1-3.5-1.21,7.83,7.83,0,0,1-2.43-3,11.91,11.91,0,0,1-1.13-4.4,15.56,15.56,0,0,1,.38-5.1,19.47,19.47,0,0,1,1.88-4.83,18.17,18.17,0,0,1,3-3.95,11.46,11.46,0,0,1,3.69-2.52,10,10,0,0,1,2.45-.65,5.48,5.48,0,0,1,2.47.19,4.42,4.42,0,0,1,2,1.38,5.62,5.62,0,0,1,1.16,2.88,6.31,6.31,0,0,1-.47,3.77,9.2,9.2,0,0,1-2.36,3.15,12.85,12.85,0,0,1-3.65,2.23,14,14,0,0,1-4.39,1,6.45,6.45,0,0,0,1.77,3.48,3.73,3.73,0,0,0,3.06,1.18,5.81,5.81,0,0,0,2.66-.82,12.32,12.32,0,0,0,2.65-2.09,20.21,20.21,0,0,0,2.48-3.15A24.84,24.84,0,0,0,288.27,204.55Zm-10.4-5.39a4.68,4.68,0,0,0-1.72,1.25,9.17,9.17,0,0,0-1.39,2.06,12.43,12.43,0,0,0-.95,2.54,14,14,0,0,0-.42,2.65,9.15,9.15,0,0,0,2.05-.9,8.69,8.69,0,0,0,1.85-1.46,8.22,8.22,0,0,0,1.39-2,7.52,7.52,0,0,0,.75-2.46,1.59,1.59,0,0,0-.44-1.42A1,1,0,0,0,277.87,199.16Z"/><path class="cls-3" d="M134.19,67.58a18.11,18.11,0,1,1-18.1-18.1A18.1,18.1,0,0,1,134.19,67.58Z"/></svg>