<?xml version="1.0" encoding="utf-8"?>
<!-- Generator: Adobe Illustrator 23.0.5, SVG Export Plug-In . SVG Version: 6.00 Build 0)  -->
<svg version="1.1" id="Capa_1" xmlns="http://www.w3.org/2000/svg" xmlns:xlink="http://www.w3.org/1999/xlink" x="0px" y="0px"
	 viewBox="0 0 512 512" style="enable-background:new 0 0 512 512;" xml:space="preserve">
<title>carrito</title>
<path d="M210.8,391.6c16.7,0,30.2,13.5,30.2,30.2c0,0,0,0,0,0c0,16.7-13.5,30.2-30.2,30.2c-16.7,0-30.2-13.5-30.2-30.2
	C180.6,405.2,194.1,391.6,210.8,391.6C210.8,391.6,210.8,391.6,210.8,391.6z"/>
<path d="M437.1,421.8C437.1,421.8,437.1,421.9,437.1,421.8c0,16.7-13.6,30.2-30.2,30.2s-30.2-13.6-30.1-30.2
	c0-16.7,13.6-30.2,30.2-30.1C423.6,391.7,437.1,405.2,437.1,421.8z"/>
<path d="M452.2,361.4c0-8.3-6.8-15.1-15.1-15H192.6l-6.9-30.2h251.3c7.4,0,13.7-5.3,14.9-12.6l30.2-181c0.1-0.8,0.2-1.7,0.2-2.5
	c0-8.3-6.8-15.1-15.1-15.1H188.7l-8.5-33.9c-1.7-6.7-7.7-11.4-14.6-11.4H44.8c-8.3,0-15.1,6.8-15.1,15.1s6.8,15.1,15.1,15.1h109
	l3.8,15.1h-37.3c-0.9,0-1.7,0.1-2.6,0.2c-8.2,1.4-13.7,9.2-12.3,17.4l30.2,181c1.2,7.3,7.5,12.6,14.9,12.6h4.4l11.1,48.6
	c1.6,6.9,7.7,11.7,14.7,11.7h256.4c0,0,0,0,0.1,0C445.4,376.6,452.2,369.8,452.2,361.4C452.2,361.5,452.2,361.4,452.2,361.4z
	 M138.1,135.2h311.4L424.3,286H163.2L138.1,135.2z"/>
</svg>
